<?xml version="1.0" standalone="no"?>
<svg xmlns="http://www.w3.org/2000/svg" width="500" height="500"><defs><clipPath id="clip-path-dot-color"><path d="M 19 261v 22h 11a 11 11, 0, 0, 0, 0 -22" transform="rotate(-90,30,272)"/><path d="M 19 283v 22h 11a 11 11, 0, 0, 0, 0 -22" transform="rotate(90,30,294)"/><circle cx="52" cy="250" r="11" transform="rotate(0,52,250)"/><path d="M 63 195v 22h 11a 11 11, 0, 0, 0, 0 -22" transform="rotate(-90,74,206)"/><path d="M 63 217v 22h 22v -11a 11 11, 0, 0, 0, -11 -11" transform="rotate(180,74,228)"/><path d="M 63 261v 22h 22v -11a 11 11, 0, 0, 0, -11 -11" transform="rotate(-90,74,272)"/><path d="M 63 283v 22h 11a 11 11, 0, 0, 0, 0 -22" transform="rotate(90,74,294)"/><rect x="85" y="217" width="22" height="22" transform="rotate(0,96,228)"/><rect x="85" y="239" width="22" height="22" transform="rotate(0,96,250)"/><rect x="85" y="261" width="22" height="22" transform="rotate(0,96,272)"/><path d="M 107 195v 22h 22v -11a 11 11, 0, 0, 0, -11 -11" transform="rotate(-90,118,206)"/><path d="M 107 217v 22h 22v -11a 11 11, 0, 0, 0, -11 -11" transform="rotate(90,118,228)"/><rect x="107" y="261" width="22" height="22" transform="rotate(0,118,272)"/><rect x="129" y="195" width="22" height="22" transform="rotate(0,140,206)"/><path d="M 129 239v 22h 22v -11a 11 11, 0, 0, 0, -11 -11" transform="rotate(-90,140,250)"/><rect x="129" y="261" width="22" height="22" transform="rotate(0,140,272)"/><path d="M 129 283v 22h 22v -11a 11 11, 0, 0, 0, -11 -11" transform="rotate(180,140,294)"/><path d="M 151 195v 22h 11a 11 11, 0, 0, 0, 0 -22" transform="rotate(0,162,206)"/><rect x="151" y="239" width="22" height="22" transform="rotate(0,162,250)"/><path d="M 151 283v 22h 11a 11 11, 0, 0, 0, 0 -22" transform="rotate(0,162,294)"/><path d="M 173 217v 22h 22v -11a 11 11, 0, 0, 0, -11 -11" transform="rotate(-90,184,228)"/><rect x="173" y="239" width="22" height="22" transform="rotate(0,184,250)"/><circle cx="206" cy="52" r="11" transform="rotate(0,206,52)"/><circle cx="206" cy="118" r="11" transform="rotate(0,206,118)"/><circle cx="206" cy="162" r="11" transform="rotate(0,206,162)"/><path d="M 195 195v 22h 11a 11 11, 0, 0, 0, 0 -22" transform="rotate(-90,206,206)"/><rect x="195" y="217" width="22" height="22" transform="rotate(0,206,228)"/><rect x="195" y="239" width="22" height="22" transform="rotate(0,206,250)"/><path d="M 195 261v 22h 11a 11 11, 0, 0, 0, 0 -22" transform="rotate(90,206,272)"/><circle cx="206" cy="316" r="11" transform="rotate(0,206,316)"/><path d="M 195 349v 22h 11a 11 11, 0, 0, 0, 0 -22" transform="rotate(-90,206,360)"/><path d="M 195 371v 22h 22v -11a 11 11, 0, 0, 0, -11 -11" transform="rotate(180,206,382)"/><path d="M 195 415v 22h 11a 11 11, 0, 0, 0, 0 -22" transform="rotate(180,206,426)"/><path d="M 217 19v 22h 11a 11 11, 0, 0, 0, 0 -22" transform="rotate(180,228,30)"/><path d="M 217 63v 22h 11a 11 11, 0, 0, 0, 0 -22" transform="rotate(180,228,74)"/><circle cx="228" cy="140" r="11" transform="rotate(0,228,140)"/><circle cx="228" cy="184" r="11" transform="rotate(0,228,184)"/><rect x="217" y="217" width="22" height="22" transform="rotate(0,228,228)"/><path d="M 217 239v 22h 22v -11a 11 11, 0, 0, 0, -11 -11" transform="rotate(90,228,250)"/><circle cx="228" cy="294" r="11" transform="rotate(0,228,294)"/><circle cx="228" cy="338" r="11" transform="rotate(0,228,338)"/><rect x="217" y="371" width="22" height="22" transform="rotate(0,228,382)"/><rect x="217" y="393" width="22" height="22" transform="rotate(0,228,404)"/><rect x="217" y="415" width="22" height="22" transform="rotate(0,228,426)"/><path d="M 217 437v 22h 22v -11a 11 11, 0, 0, 0, -11 -11" transform="rotate(180,228,448)"/><rect x="239" y="19" width="22" height="22" transform="rotate(0,250,30)"/><rect x="239" y="41" width="22" height="22" transform="rotate(0,250,52)"/><path d="M 239 63v 22h 22v -11a 11 11, 0, 0, 0, -11 -11" transform="rotate(90,250,74)"/><circle cx="250" cy="118" r="11" transform="rotate(0,250,118)"/><circle cx="250" cy="162" r="11" transform="rotate(0,250,162)"/><path d="M 239 195v 22h 22v -11a 11 11, 0, 0, 0, -11 -11" transform="rotate(-90,250,206)"/><rect x="239" y="217" width="22" height="22" transform="rotate(0,250,228)"/><circle cx="250" cy="316" r="11" transform="rotate(0,250,316)"/><rect x="239" y="371" width="22" height="22" transform="rotate(0,250,382)"/><rect x="239" y="437" width="22" height="22" transform="rotate(0,250,448)"/><rect x="261" y="19" width="22" height="22" transform="rotate(0,272,30)"/><path d="M 261 173v 22h 11a 11 11, 0, 0, 0, 0 -22" transform="rotate(-90,272,184)"/><rect x="261" y="195" width="22" height="22" transform="rotate(0,272,206)"/><rect x="261" y="217" width="22" height="22" transform="rotate(0,272,228)"/><path d="M 261 261v 22h 22v -11a 11 11, 0, 0, 0, -11 -11" transform="rotate(-90,272,272)"/><path d="M 261 283v 22h 22v -11a 11 11, 0, 0, 0, -11 -11" transform="rotate(180,272,294)"/><rect x="261" y="371" width="22" height="22" transform="rotate(0,272,382)"/><rect x="261" y="437" width="22" height="22" transform="rotate(0,272,448)"/><path d="M 261 459v 22h 22v -11a 11 11, 0, 0, 0, -11 -11" transform="rotate(180,272,470)"/><path d="M 283 19v 22h 22v -11a 11 11, 0, 0, 0, -11 -11" transform="rotate(0,294,30)"/><path d="M 283 41v 22h 11a 11 11, 0, 0, 0, 0 -22" transform="rotate(90,294,52)"/><path d="M 283 85v 22h 11a 11 11, 0, 0, 0, 0 -22" transform="rotate(-90,294,96)"/><path d="M 283 107v 22h 11a 11 11, 0, 0, 0, 0 -22" transform="rotate(90,294,118)"/><circle cx="294" cy="162" r="11" transform="rotate(0,294,162)"/><rect x="283" y="217" width="22" height="22" transform="rotate(0,294,228)"/><rect x="283" y="239" width="22" height="22" transform="rotate(0,294,250)"/><rect x="283" y="261" width="22" height="22" transform="rotate(0,294,272)"/><rect x="283" y="283" width="22" height="22" transform="rotate(0,294,294)"/><path d="M 283 305v 22h 11a 11 11, 0, 0, 0, 0 -22" transform="rotate(90,294,316)"/><path d="M 283 349v 22h 11a 11 11, 0, 0, 0, 0 -22" transform="rotate(-90,294,360)"/><rect x="283" y="371" width="22" height="22" transform="rotate(0,294,382)"/><path d="M 283 437v 22h 22v -11a 11 11, 0, 0, 0, -11 -11" transform="rotate(0,294,448)"/><path d="M 283 459v 22h 22v -11a 11 11, 0, 0, 0, -11 -11" transform="rotate(90,294,470)"/><path d="M 305 195v 22h 11a 11 11, 0, 0, 0, 0 -22" transform="rotate(-90,316,206)"/><rect x="305" y="217" width="22" height="22" transform="rotate(0,316,228)"/><path d="M 305 283v 22h 11a 11 11, 0, 0, 0, 0 -22" transform="rotate(0,316,294)"/><rect x="305" y="371" width="22" height="22" transform="rotate(0,316,382)"/><path d="M 305 415v 22h 11a 11 11, 0, 0, 0, 0 -22" transform="rotate(180,316,426)"/><rect x="327" y="217" width="22" height="22" transform="rotate(0,338,228)"/><circle cx="338" cy="272" r="11" transform="rotate(0,338,272)"/><circle cx="338" cy="338" r="11" transform="rotate(0,338,338)"/><path d="M 327 371v 22h 22v -11a 11 11, 0, 0, 0, -11 -11" transform="rotate(0,338,382)"/><rect x="327" y="393" width="22" height="22" transform="rotate(0,338,404)"/><rect x="327" y="415" width="22" height="22" transform="rotate(0,338,426)"/><path d="M 327 437v 22h 22v -11a 11 11, 0, 0, 0, -11 -11" transform="rotate(180,338,448)"/><rect x="349" y="217" width="22" height="22" transform="rotate(0,360,228)"/><path d="M 349 239v 22h 11a 11 11, 0, 0, 0, 0 -22" transform="rotate(90,360,250)"/><circle cx="360" cy="316" r="11" transform="rotate(0,360,316)"/><path d="M 349 349v 22h 11a 11 11, 0, 0, 0, 0 -22" transform="rotate(180,360,360)"/><rect x="349" y="437" width="22" height="22" transform="rotate(0,360,448)"/><path d="M 349 459v 22h 11a 11 11, 0, 0, 0, 0 -22" transform="rotate(90,360,470)"/><path d="M 371 195v 22h 11a 11 11, 0, 0, 0, 0 -22" transform="rotate(-90,382,206)"/><rect x="371" y="217" width="22" height="22" transform="rotate(0,382,228)"/><circle cx="382" cy="272" r="11" transform="rotate(0,382,272)"/><path d="M 371 349v 22h 22v -11a 11 11, 0, 0, 0, -11 -11" transform="rotate(0,382,360)"/><path d="M 371 371v 22h 22v -11a 11 11, 0, 0, 0, -11 -11" transform="rotate(180,382,382)"/><rect x="371" y="437" width="22" height="22" transform="rotate(0,382,448)"/><path d="M 393 217v 22h 22v -11a 11 11, 0, 0, 0, -11 -11" transform="rotate(0,404,228)"/><path d="M 393 239v 22h 11a 11 11, 0, 0, 0, 0 -22" transform="rotate(90,404,250)"/><circle cx="404" cy="294" r="11" transform="rotate(0,404,294)"/><circle cx="404" cy="338" r="11" transform="rotate(0,404,338)"/><rect x="393" y="371" width="22" height="22" transform="rotate(0,404,382)"/><path d="M 393 415v 22h 11a 11 11, 0, 0, 0, 0 -22" transform="rotate(-90,404,426)"/><rect x="393" y="437" width="22" height="22" transform="rotate(0,404,448)"/><path d="M 393 459v 22h 11a 11 11, 0, 0, 0, 0 -22" transform="rotate(90,404,470)"/><circle cx="426" cy="272" r="11" transform="rotate(0,426,272)"/><path d="M 415 305v 22h 11a 11 11, 0, 0, 0, 0 -22" transform="rotate(180,426,316)"/><path d="M 415 349v 22h 11a 11 11, 0, 0, 0, 0 -22" transform="rotate(-90,426,360)"/><path d="M 415 371v 22h 22v -11a 11 11, 0, 0, 0, -11 -11" transform="rotate(90,426,382)"/><path d="M 437 195v 22h 11a 11 11, 0, 0, 0, 0 -22" transform="rotate(-90,448,206)"/><rect x="437" y="217" width="22" height="22" transform="rotate(0,448,228)"/><path d="M 437 239v 22h 22v -11a 11 11, 0, 0, 0, -11 -11" transform="rotate(180,448,250)"/><path d="M 437 283v 22h 11a 11 11, 0, 0, 0, 0 -22" transform="rotate(-90,448,294)"/><rect x="437" y="305" width="22" height="22" transform="rotate(0,448,316)"/><path d="M 459 239v 22h 11a 11 11, 0, 0, 0, 0 -22" transform="rotate(0,470,250)"/><path d="M 459 305v 22h 11a 11 11, 0, 0, 0, 0 -22" transform="rotate(0,470,316)"/><circle cx="470" cy="382" r="11" transform="rotate(0,470,382)"/><circle cx="470" cy="470" r="11" transform="rotate(0,470,470)"/></clipPath><clipPath id="clip-path-corners-square-color-0-0"><path clip-rule="evenodd" d="M 19 74v 44a 55 55, 0, 0, 0, 55 55h 44a 55 55, 0, 0, 0, 55 -55v -44a 55 55, 0, 0, 0, -55 -55h -44a 55 55, 0, 0, 0, -55 55M 74 41h 44a 33 33, 0, 0, 1, 33 33v 44a 33 33, 0, 0, 1, -33 33h -44a 33 33, 0, 0, 1, -33 -33v -44a 33 33, 0, 0, 1, 33 -33" transform="rotate(0,96,96)"/></clipPath><clipPath id="clip-path-corners-dot-color-0-0"><circle cx="96" cy="96" r="33" transform="rotate(0,96,96)"/></clipPath><clipPath id="clip-path-corners-square-color-1-0"><path clip-rule="evenodd" d="M 327 74v 44a 55 55, 0, 0, 0, 55 55h 44a 55 55, 0, 0, 0, 55 -55v -44a 55 55, 0, 0, 0, -55 -55h -44a 55 55, 0, 0, 0, -55 55M 382 41h 44a 33 33, 0, 0, 1, 33 33v 44a 33 33, 0, 0, 1, -33 33h -44a 33 33, 0, 0, 1, -33 -33v -44a 33 33, 0, 0, 1, 33 -33" transform="rotate(90,404,96)"/></clipPath><clipPath id="clip-path-corners-dot-color-1-0"><circle cx="404" cy="96" r="33" transform="rotate(90,404,96)"/></clipPath><clipPath id="clip-path-corners-square-color-0-1"><path clip-rule="evenodd" d="M 19 382v 44a 55 55, 0, 0, 0, 55 55h 44a 55 55, 0, 0, 0, 55 -55v -44a 55 55, 0, 0, 0, -55 -55h -44a 55 55, 0, 0, 0, -55 55M 74 349h 44a 33 33, 0, 0, 1, 33 33v 44a 33 33, 0, 0, 1, -33 33h -44a 33 33, 0, 0, 1, -33 -33v -44a 33 33, 0, 0, 1, 33 -33" transform="rotate(-90,96,404)"/></clipPath><clipPath id="clip-path-corners-dot-color-0-1"><circle cx="96" cy="404" r="33" transform="rotate(-90,96,404)"/></clipPath></defs><rect x="0" y="0" height="500" width="500" clip-path="url('#clip-path-background-color')" fill="transparent"/><rect x="0" y="0" height="500" width="500" clip-path="url('#clip-path-dot-color')" fill="whitesmoke"/><rect x="19" y="19" height="154" width="154" clip-path="url('#clip-path-corners-square-color-0-0')" fill="whitesmoke"/><rect x="63" y="63" height="66" width="66" clip-path="url('#clip-path-corners-dot-color-0-0')" fill="whitesmoke"/><rect x="327" y="19" height="154" width="154" clip-path="url('#clip-path-corners-square-color-1-0')" fill="whitesmoke"/><rect x="371" y="63" height="66" width="66" clip-path="url('#clip-path-corners-dot-color-1-0')" fill="whitesmoke"/><rect x="19" y="327" height="154" width="154" clip-path="url('#clip-path-corners-square-color-0-1')" fill="whitesmoke"/><rect x="63" y="371" height="66" width="66" clip-path="url('#clip-path-corners-dot-color-0-1')" fill="whitesmoke"/></svg>